<svg width="198" height="40" viewBox="0 0 198 40" fill="none" xmlns="http://www.w3.org/2000/svg">
<path d="M22 8C15.3726 8 10 13.3726 10 20C13.5402 23.0589 16.6404 23.2341 22 20.6315C27.2529 17.7893 30.1926 17.9113 34 20C34 13.3726 28.6274 8 22 8Z" fill="#98A2B3"/>
<path d="M34 20C34 26.6274 28.6274 32 22 32C15.3726 32 10 26.6274 10 20M34 20C34 13.3726 28.6274 8 22 8C15.3726 8 10 13.3726 10 20M34 20C30.1926 17.9113 27.2529 17.7893 22 20.6315C16.6404 23.2341 13.5402 23.0589 10 20" stroke="#98A2B3" stroke-width="2.7" stroke-linecap="round"/>
<path d="M51.321 27V16.0909H53.892V27H51.321ZM52.6136 14.5426C52.2064 14.5426 51.8561 14.4077 51.5625 14.1378C51.2689 13.8632 51.1222 13.5341 51.1222 13.1506C51.1222 12.7623 51.2689 12.4332 51.5625 12.1634C51.8561 11.8887 52.2064 11.7514 52.6136 11.7514C53.0256 11.7514 53.3759 11.8887 53.6648 12.1634C53.9583 12.4332 54.1051 12.7623 54.1051 13.1506C54.1051 13.5341 53.9583 13.8632 53.6648 14.1378C53.3759 14.4077 53.0256 14.5426 52.6136 14.5426ZM57.5069 20.608V27H54.9359V16.0909H57.3933V17.9446H57.5211C57.772 17.3338 58.1721 16.8485 58.7214 16.4886C59.2754 16.1288 59.9595 15.9489 60.7739 15.9489C61.5268 15.9489 62.1826 16.1098 62.7413 16.4318C63.3047 16.7538 63.7403 17.2202 64.0481 17.831C64.3606 18.4418 64.5145 19.1828 64.5097 20.054V27H61.9387V20.4517C61.9387 19.7225 61.7493 19.152 61.3705 18.7401C60.9965 18.3281 60.478 18.1222 59.8151 18.1222C59.3653 18.1222 58.9652 18.2216 58.6148 18.4205C58.2692 18.6146 57.9969 18.8963 57.7981 19.2656C57.604 19.6349 57.5069 20.0824 57.5069 20.608ZM71.0489 16.0909V18.0795H64.6001V16.0909H71.0489ZM66.2123 27V15.0611C66.2123 14.3272 66.3638 13.7164 66.6668 13.2287C66.9746 12.741 67.3865 12.3764 67.9026 12.1349C68.4187 11.8935 68.9916 11.7727 69.6214 11.7727C70.0665 11.7727 70.4618 11.8082 70.8075 11.8793C71.1531 11.9503 71.4088 12.0142 71.5745 12.071L71.0631 14.0597C70.9542 14.0265 70.8169 13.9934 70.6512 13.9602C70.4855 13.9223 70.3008 13.9034 70.0972 13.9034C69.619 13.9034 69.2805 14.0194 69.0816 14.2514C68.8875 14.4787 68.7904 14.8054 68.7904 15.2315V27H66.2123ZM74.0335 12.4545V27H71.4624V12.4545H74.0335ZM79.8358 27.2131C78.7705 27.2131 77.8472 26.9787 77.0659 26.5099C76.2847 26.0412 75.6786 25.3854 75.2477 24.5426C74.8216 23.6998 74.6085 22.715 74.6085 21.5881C74.6085 20.4612 74.8216 19.474 75.2477 18.6264C75.6786 17.7789 76.2847 17.1207 77.0659 16.652C77.8472 16.1832 78.7705 15.9489 79.8358 15.9489C80.9011 15.9489 81.8244 16.1832 82.6057 16.652C83.3869 17.1207 83.9906 17.7789 84.4168 18.6264C84.8476 19.474 85.0631 20.4612 85.0631 21.5881C85.0631 22.715 84.8476 23.6998 84.4168 24.5426C83.9906 25.3854 83.3869 26.0412 82.6057 26.5099C81.8244 26.9787 80.9011 27.2131 79.8358 27.2131ZM79.85 25.1534C80.4277 25.1534 80.9106 24.9948 81.2989 24.6776C81.6871 24.3556 81.9759 23.9247 82.1653 23.3849C82.3595 22.8452 82.4565 22.2438 82.4565 21.581C82.4565 20.9134 82.3595 20.3097 82.1653 19.7699C81.9759 19.2254 81.6871 18.7921 81.2989 18.4702C80.9106 18.1482 80.4277 17.9872 79.85 17.9872C79.2581 17.9872 78.7657 18.1482 78.3727 18.4702C77.9845 18.7921 77.6933 19.2254 77.4991 19.7699C77.3098 20.3097 77.2151 20.9134 77.2151 21.581C77.2151 22.2438 77.3098 22.8452 77.4991 23.3849C77.6933 23.9247 77.9845 24.3556 78.3727 24.6776C78.7657 24.9948 79.2581 25.1534 79.85 25.1534ZM87.5842 27L84.5018 16.0909H87.1225L89.0401 23.7614H89.1396L91.0998 16.0909H93.6921L95.6523 23.7188H95.7589L97.6481 16.0909H100.276L97.1864 27H94.5089L92.4634 19.6278H92.3143L90.2688 27H87.5842ZM107.88 27.1918C107.023 27.1918 106.256 26.9716 105.579 26.5312C104.902 26.0909 104.367 25.4517 103.974 24.6136C103.581 23.7756 103.385 22.7576 103.385 21.5597C103.385 20.3475 103.583 19.3248 103.981 18.4915C104.384 17.6534 104.926 17.0213 105.608 16.5952C106.289 16.1643 107.049 15.9489 107.887 15.9489C108.527 15.9489 109.052 16.0578 109.464 16.2756C109.876 16.4886 110.203 16.7467 110.444 17.0497C110.686 17.348 110.873 17.6297 111.005 17.8949H111.112V12.4545H113.69V27H111.162V25.2812H111.005C110.873 25.5464 110.681 25.8281 110.43 26.1264C110.179 26.42 109.848 26.6709 109.436 26.8793C109.024 27.0876 108.505 27.1918 107.88 27.1918ZM108.598 25.0824C109.142 25.0824 109.606 24.9356 109.99 24.642C110.373 24.3437 110.664 23.9295 110.863 23.3991C111.062 22.8688 111.162 22.2509 111.162 21.5455C111.162 20.84 111.062 20.2268 110.863 19.706C110.669 19.1851 110.38 18.7803 109.997 18.4915C109.618 18.2027 109.152 18.0582 108.598 18.0582C108.025 18.0582 107.546 18.2074 107.163 18.5057C106.779 18.804 106.491 19.2159 106.296 19.7415C106.102 20.267 106.005 20.8684 106.005 21.5455C106.005 22.2273 106.102 22.8357 106.296 23.3707C106.495 23.901 106.787 24.3201 107.17 24.6278C107.558 24.9309 108.034 25.0824 108.598 25.0824ZM119.659 27.2131C118.565 27.2131 117.621 26.9858 116.825 26.5312C116.035 26.072 115.426 25.4233 115 24.5852C114.574 23.7424 114.361 22.7505 114.361 21.6094C114.361 20.4872 114.574 19.5024 115 18.6548C115.431 17.8026 116.032 17.1397 116.804 16.6662C117.576 16.188 118.483 15.9489 119.524 15.9489C120.197 15.9489 120.831 16.0578 121.428 16.2756C122.029 16.4886 122.559 16.8201 123.019 17.2699C123.483 17.7197 123.847 18.2926 124.112 18.9886C124.377 19.6799 124.51 20.5038 124.51 21.4602V22.2486H115.568V20.5156H122.046C122.041 20.0232 121.934 19.5852 121.726 19.2017C121.518 18.8134 121.226 18.508 120.852 18.2855C120.483 18.063 120.052 17.9517 119.56 17.9517C119.034 17.9517 118.573 18.0795 118.175 18.3352C117.777 18.5862 117.467 18.9176 117.244 19.3295C117.027 19.7367 116.915 20.1842 116.911 20.6719V22.1847C116.911 22.8191 117.027 23.3636 117.259 23.8182C117.491 24.268 117.815 24.6136 118.232 24.8551C118.648 25.0919 119.136 25.2102 119.695 25.2102C120.069 25.2102 120.407 25.1581 120.71 25.054C121.013 24.9451 121.276 24.7865 121.499 24.5781C121.721 24.3698 121.889 24.1117 122.003 23.804L124.403 24.0739C124.252 24.7083 123.963 25.2623 123.537 25.7358C123.116 26.2045 122.576 26.5691 121.918 26.8295C121.26 27.0852 120.507 27.2131 119.659 27.2131ZM133.707 18.9744L131.363 19.2301C131.297 18.9934 131.181 18.7708 131.015 18.5625C130.854 18.3542 130.637 18.1861 130.362 18.0582C130.087 17.9304 129.751 17.8665 129.354 17.8665C128.819 17.8665 128.369 17.9825 128.004 18.2145C127.644 18.4465 127.467 18.7472 127.471 19.1165C127.467 19.4337 127.583 19.6918 127.819 19.8906C128.061 20.0895 128.459 20.2528 129.013 20.3807L130.873 20.7784C131.906 21.0009 132.673 21.3537 133.175 21.8366C133.681 22.3196 133.937 22.9517 133.942 23.733C133.937 24.4195 133.736 25.0256 133.338 25.5511C132.945 26.072 132.398 26.4792 131.697 26.7727C130.997 27.0663 130.192 27.2131 129.283 27.2131C127.947 27.2131 126.872 26.9337 126.058 26.375C125.244 25.8116 124.758 25.0279 124.602 24.0241L127.109 23.7827C127.223 24.2751 127.464 24.6468 127.834 24.8977C128.203 25.1487 128.684 25.2741 129.275 25.2741C129.886 25.2741 130.376 25.1487 130.746 24.8977C131.12 24.6468 131.307 24.3366 131.307 23.9673C131.307 23.6548 131.186 23.3968 130.944 23.1932C130.708 22.9896 130.338 22.8333 129.837 22.7244L127.976 22.3338C126.929 22.116 126.155 21.7491 125.653 21.233C125.151 20.7121 124.903 20.054 124.908 19.2585C124.903 18.5862 125.085 18.0038 125.454 17.5114C125.828 17.0142 126.347 16.6307 127.01 16.3608C127.677 16.0862 128.447 15.9489 129.318 15.9489C130.596 15.9489 131.603 16.2211 132.337 16.7656C133.075 17.3101 133.532 18.0464 133.707 18.9744ZM134.462 27V16.0909H137.033V27H134.462ZM135.754 14.5426C135.347 14.5426 134.997 14.4077 134.703 14.1378C134.41 13.8632 134.263 13.5341 134.263 13.1506C134.263 12.7623 134.41 12.4332 134.703 12.1634C134.997 11.8887 135.347 11.7514 135.754 11.7514C136.166 11.7514 136.517 11.8887 136.805 12.1634C137.099 12.4332 137.246 12.7623 137.246 13.1506C137.246 13.5341 137.099 13.8632 136.805 14.1378C136.517 14.4077 136.166 14.5426 135.754 14.5426ZM142.821 31.3182C141.898 31.3182 141.104 31.1927 140.442 30.9418C139.779 30.6955 139.246 30.3641 138.844 29.9474C138.441 29.5308 138.162 29.0691 138.005 28.5625L140.321 28.0014C140.425 28.2145 140.576 28.4252 140.775 28.6335C140.974 28.8466 141.242 29.0218 141.578 29.1591C141.919 29.3011 142.347 29.3722 142.863 29.3722C143.593 29.3722 144.196 29.1946 144.675 28.8395C145.153 28.4891 145.392 27.9115 145.392 27.1065V25.0398H145.264C145.131 25.3049 144.937 25.5772 144.682 25.8565C144.431 26.1359 144.097 26.3703 143.68 26.5597C143.268 26.7491 142.75 26.8438 142.125 26.8438C141.287 26.8438 140.527 26.6473 139.845 26.2543C139.168 25.8565 138.628 25.2647 138.226 24.4787C137.828 23.688 137.629 22.6984 137.629 21.5099C137.629 20.312 137.828 19.3011 138.226 18.4773C138.628 17.6487 139.17 17.0213 139.852 16.5952C140.534 16.1643 141.294 15.9489 142.132 15.9489C142.771 15.9489 143.297 16.0578 143.709 16.2756C144.125 16.4886 144.457 16.7467 144.703 17.0497C144.949 17.348 145.136 17.6297 145.264 17.8949H145.406V16.0909H147.942V27.1776C147.942 28.1103 147.719 28.8821 147.274 29.4929C146.829 30.1037 146.22 30.5606 145.449 30.8636C144.677 31.1667 143.801 31.3182 142.821 31.3182ZM142.842 24.8267C143.387 24.8267 143.851 24.6941 144.234 24.429C144.618 24.1638 144.909 23.7827 145.108 23.2855C145.307 22.7884 145.406 22.1918 145.406 21.4957C145.406 20.8092 145.307 20.2079 145.108 19.6918C144.914 19.1757 144.625 18.7756 144.241 18.4915C143.862 18.2027 143.396 18.0582 142.842 18.0582C142.269 18.0582 141.791 18.2074 141.407 18.5057C141.024 18.804 140.735 19.2135 140.541 19.7344C140.347 20.2505 140.25 20.8376 140.25 21.4957C140.25 22.1634 140.347 22.7481 140.541 23.25C140.74 23.7472 141.031 24.1354 141.415 24.4148C141.803 24.6894 142.279 24.8267 142.842 24.8267ZM151.548 20.608V27H148.976V16.0909H151.434V17.9446H151.562C151.813 17.3338 152.213 16.8485 152.762 16.4886C153.316 16.1288 154 15.9489 154.815 15.9489C155.567 15.9489 156.223 16.1098 156.782 16.4318C157.345 16.7538 157.781 17.2202 158.089 17.831C158.401 18.4418 158.555 19.1828 158.55 20.054V27H155.979V20.4517C155.979 19.7225 155.79 19.152 155.411 18.7401C155.037 18.3281 154.519 18.1222 153.856 18.1222C153.406 18.1222 153.006 18.2216 152.655 18.4205C152.31 18.6146 152.038 18.8963 151.839 19.2656C151.645 19.6349 151.548 20.0824 151.548 20.608ZM167.683 27.2131C166.594 27.2131 165.659 26.974 164.878 26.4957C164.102 26.0175 163.503 25.357 163.081 24.5142C162.665 23.6667 162.456 22.6913 162.456 21.5881C162.456 20.4801 162.669 19.5024 163.095 18.6548C163.522 17.8026 164.123 17.1397 164.899 16.6662C165.681 16.188 166.604 15.9489 167.669 15.9489C168.555 15.9489 169.338 16.1122 170.02 16.4389C170.707 16.7609 171.254 17.2178 171.661 17.8097C172.068 18.3968 172.3 19.0833 172.357 19.8693H169.899C169.8 19.3437 169.563 18.9058 169.189 18.5554C168.82 18.2003 168.325 18.0227 167.705 18.0227C167.179 18.0227 166.718 18.1648 166.32 18.4489C165.922 18.7282 165.612 19.1307 165.389 19.6562C165.172 20.1818 165.063 20.8116 165.063 21.5455C165.063 22.2888 165.172 22.928 165.389 23.4631C165.607 23.9934 165.913 24.4029 166.306 24.6918C166.703 24.9759 167.17 25.1179 167.705 25.1179C168.084 25.1179 168.422 25.0469 168.72 24.9048C169.023 24.758 169.277 24.5473 169.48 24.2727C169.684 23.9981 169.824 23.6643 169.899 23.2713H172.357C172.295 24.0431 172.068 24.7273 171.675 25.3239C171.282 25.9157 170.747 26.3797 170.07 26.7159C169.393 27.0473 168.597 27.2131 167.683 27.2131ZM177.626 27.2131C176.561 27.2131 175.638 26.9787 174.857 26.5099C174.075 26.0412 173.469 25.3854 173.038 24.5426C172.612 23.6998 172.399 22.715 172.399 21.5881C172.399 20.4612 172.612 19.474 173.038 18.6264C173.469 17.7789 174.075 17.1207 174.857 16.652C175.638 16.1832 176.561 15.9489 177.626 15.9489C178.692 15.9489 179.615 16.1832 180.396 16.652C181.178 17.1207 181.781 17.7789 182.207 18.6264C182.638 19.474 182.854 20.4612 182.854 21.5881C182.854 22.715 182.638 23.6998 182.207 24.5426C181.781 25.3854 181.178 26.0412 180.396 26.5099C179.615 26.9787 178.692 27.2131 177.626 27.2131ZM177.641 25.1534C178.218 25.1534 178.701 24.9948 179.089 24.6776C179.478 24.3556 179.767 23.9247 179.956 23.3849C180.15 22.8452 180.247 22.2438 180.247 21.581C180.247 20.9134 180.15 20.3097 179.956 19.7699C179.767 19.2254 179.478 18.7921 179.089 18.4702C178.701 18.1482 178.218 17.9872 177.641 17.9872C177.049 17.9872 176.556 18.1482 176.163 18.4702C175.775 18.7921 175.484 19.2254 175.29 19.7699C175.1 20.3097 175.006 20.9134 175.006 21.581C175.006 22.2438 175.1 22.8452 175.29 23.3849C175.484 23.9247 175.775 24.3556 176.163 24.6776C176.556 24.9948 177.049 25.1534 177.641 25.1534ZM185.02 27.1562C184.589 27.1562 184.219 27.0047 183.912 26.7017C183.604 26.3987 183.452 26.0294 183.457 25.5938C183.452 25.1676 183.604 24.803 183.912 24.5C184.219 24.197 184.589 24.0455 185.02 24.0455C185.436 24.0455 185.799 24.197 186.106 24.5C186.419 24.803 186.577 25.1676 186.582 25.5938C186.577 25.8826 186.502 26.1454 186.355 26.3821C186.213 26.6188 186.023 26.8082 185.787 26.9503C185.555 27.0876 185.299 27.1562 185.02 27.1562Z" fill="#98A2B3"/>
</svg>
