<svg width="192" height="40" viewBox="0 0 192 40" fill="none" xmlns="http://www.w3.org/2000/svg">
<path d="M22 8C15.3726 8 10 13.3726 10 20C13.5402 23.0589 16.6404 23.2341 22 20.6315C27.2529 17.7893 30.1926 17.9113 34 20C34 13.3726 28.6274 8 22 8Z" fill="black"/>
<path d="M34 20C34 26.6274 28.6274 32 22 32C15.3726 32 10 26.6274 10 20M34 20C34 13.3726 28.6274 8 22 8C15.3726 8 10 13.3726 10 20M34 20C30.1926 17.9113 27.2529 17.7893 22 20.6315C16.6404 23.2341 13.5402 23.0589 10 20" stroke="black" stroke-width="2.7" stroke-linecap="round"/>
<path d="M45.321 27V16.0909H47.892V27H45.321ZM46.6136 14.5426C46.2064 14.5426 45.8561 14.4077 45.5625 14.1378C45.2689 13.8632 45.1222 13.5341 45.1222 13.1506C45.1222 12.7623 45.2689 12.4332 45.5625 12.1634C45.8561 11.8887 46.2064 11.7514 46.6136 11.7514C47.0256 11.7514 47.3759 11.8887 47.6648 12.1634C47.9583 12.4332 48.1051 12.7623 48.1051 13.1506C48.1051 13.5341 47.9583 13.8632 47.6648 14.1378C47.3759 14.4077 47.0256 14.5426 46.6136 14.5426ZM51.5069 20.608V27H48.9359V16.0909H51.3933V17.9446H51.5211C51.772 17.3338 52.1721 16.8485 52.7214 16.4886C53.2754 16.1288 53.9595 15.9489 54.7739 15.9489C55.5268 15.9489 56.1826 16.1098 56.7413 16.4318C57.3047 16.7538 57.7403 17.2202 58.0481 17.831C58.3606 18.4418 58.5145 19.1828 58.5097 20.054V27H55.9387V20.4517C55.9387 19.7225 55.7493 19.152 55.3705 18.7401C54.9965 18.3281 54.478 18.1222 53.8151 18.1222C53.3653 18.1222 52.9652 18.2216 52.6148 18.4205C52.2692 18.6146 51.9969 18.8963 51.7981 19.2656C51.604 19.6349 51.5069 20.0824 51.5069 20.608ZM65.0489 16.0909V18.0795H58.6001V16.0909H65.0489ZM60.2123 27V15.0611C60.2123 14.3272 60.3638 13.7164 60.6668 13.2287C60.9746 12.741 61.3865 12.3764 61.9026 12.1349C62.4187 11.8935 62.9916 11.7727 63.6214 11.7727C64.0665 11.7727 64.4618 11.8082 64.8075 11.8793C65.1531 11.9503 65.4088 12.0142 65.5745 12.071L65.0631 14.0597C64.9542 14.0265 64.8169 13.9934 64.6512 13.9602C64.4855 13.9223 64.3008 13.9034 64.0972 13.9034C63.619 13.9034 63.2805 14.0194 63.0816 14.2514C62.8875 14.4787 62.7904 14.8054 62.7904 15.2315V27H60.2123ZM68.0335 12.4545V27H65.4624V12.4545H68.0335ZM73.8358 27.2131C72.7705 27.2131 71.8472 26.9787 71.0659 26.5099C70.2847 26.0412 69.6786 25.3854 69.2477 24.5426C68.8216 23.6998 68.6085 22.715 68.6085 21.5881C68.6085 20.4612 68.8216 19.474 69.2477 18.6264C69.6786 17.7789 70.2847 17.1207 71.0659 16.652C71.8472 16.1832 72.7705 15.9489 73.8358 15.9489C74.9011 15.9489 75.8244 16.1832 76.6057 16.652C77.3869 17.1207 77.9906 17.7789 78.4168 18.6264C78.8476 19.474 79.0631 20.4612 79.0631 21.5881C79.0631 22.715 78.8476 23.6998 78.4168 24.5426C77.9906 25.3854 77.3869 26.0412 76.6057 26.5099C75.8244 26.9787 74.9011 27.2131 73.8358 27.2131ZM73.85 25.1534C74.4277 25.1534 74.9106 24.9948 75.2989 24.6776C75.6871 24.3556 75.9759 23.9247 76.1653 23.3849C76.3595 22.8452 76.4565 22.2438 76.4565 21.581C76.4565 20.9134 76.3595 20.3097 76.1653 19.7699C75.9759 19.2254 75.6871 18.7921 75.2989 18.4702C74.9106 18.1482 74.4277 17.9872 73.85 17.9872C73.2581 17.9872 72.7657 18.1482 72.3727 18.4702C71.9845 18.7921 71.6933 19.2254 71.4991 19.7699C71.3098 20.3097 71.2151 20.9134 71.2151 21.581C71.2151 22.2438 71.3098 22.8452 71.4991 23.3849C71.6933 23.9247 71.9845 24.3556 72.3727 24.6776C72.7657 24.9948 73.2581 25.1534 73.85 25.1534ZM81.5842 27L78.5018 16.0909H81.1225L83.0401 23.7614H83.1396L85.0998 16.0909H87.6921L89.6523 23.7188H89.7589L91.6481 16.0909H94.2759L91.1864 27H88.5089L86.4634 19.6278H86.3143L84.2688 27H81.5842ZM101.88 27.1918C101.023 27.1918 100.256 26.9716 99.5791 26.5312C98.902 26.0909 98.367 25.4517 97.974 24.6136C97.581 23.7756 97.3845 22.7576 97.3845 21.5597C97.3845 20.3475 97.5834 19.3248 97.9811 18.4915C98.3836 17.6534 98.9257 17.0213 99.6075 16.5952C100.289 16.1643 101.049 15.9489 101.887 15.9489C102.527 15.9489 103.052 16.0578 103.464 16.2756C103.876 16.4886 104.203 16.7467 104.444 17.0497C104.686 17.348 104.873 17.6297 105.005 17.8949H105.112V12.4545H107.69V27H105.162V25.2812H105.005C104.873 25.5464 104.681 25.8281 104.43 26.1264C104.179 26.42 103.848 26.6709 103.436 26.8793C103.024 27.0876 102.505 27.1918 101.88 27.1918ZM102.598 25.0824C103.142 25.0824 103.606 24.9356 103.99 24.642C104.373 24.3437 104.664 23.9295 104.863 23.3991C105.062 22.8688 105.162 22.2509 105.162 21.5455C105.162 20.84 105.062 20.2268 104.863 19.706C104.669 19.1851 104.38 18.7803 103.997 18.4915C103.618 18.2027 103.152 18.0582 102.598 18.0582C102.025 18.0582 101.546 18.2074 101.163 18.5057C100.779 18.804 100.491 19.2159 100.296 19.7415C100.102 20.267 100.005 20.8684 100.005 21.5455C100.005 22.2273 100.102 22.8357 100.296 23.3707C100.495 23.901 100.787 24.3201 101.17 24.6278C101.558 24.9309 102.034 25.0824 102.598 25.0824ZM113.659 27.2131C112.565 27.2131 111.621 26.9858 110.825 26.5312C110.035 26.072 109.426 25.4233 109 24.5852C108.574 23.7424 108.361 22.7505 108.361 21.6094C108.361 20.4872 108.574 19.5024 109 18.6548C109.431 17.8026 110.032 17.1397 110.804 16.6662C111.576 16.188 112.483 15.9489 113.524 15.9489C114.197 15.9489 114.831 16.0578 115.428 16.2756C116.029 16.4886 116.559 16.8201 117.019 17.2699C117.483 17.7197 117.847 18.2926 118.112 18.9886C118.377 19.6799 118.51 20.5038 118.51 21.4602V22.2486H109.568V20.5156H116.046C116.041 20.0232 115.934 19.5852 115.726 19.2017C115.518 18.8134 115.226 18.508 114.852 18.2855C114.483 18.063 114.052 17.9517 113.56 17.9517C113.034 17.9517 112.573 18.0795 112.175 18.3352C111.777 18.5862 111.467 18.9176 111.244 19.3295C111.027 19.7367 110.915 20.1842 110.911 20.6719V22.1847C110.911 22.8191 111.027 23.3636 111.259 23.8182C111.491 24.268 111.815 24.6136 112.232 24.8551C112.648 25.0919 113.136 25.2102 113.695 25.2102C114.069 25.2102 114.407 25.1581 114.71 25.054C115.013 24.9451 115.276 24.7865 115.499 24.5781C115.721 24.3698 115.889 24.1117 116.003 23.804L118.403 24.0739C118.252 24.7083 117.963 25.2623 117.537 25.7358C117.116 26.2045 116.576 26.5691 115.918 26.8295C115.26 27.0852 114.507 27.2131 113.659 27.2131ZM127.707 18.9744L125.363 19.2301C125.297 18.9934 125.181 18.7708 125.015 18.5625C124.854 18.3542 124.637 18.1861 124.362 18.0582C124.087 17.9304 123.751 17.8665 123.354 17.8665C122.819 17.8665 122.369 17.9825 122.004 18.2145C121.644 18.4465 121.467 18.7472 121.471 19.1165C121.467 19.4337 121.583 19.6918 121.819 19.8906C122.061 20.0895 122.459 20.2528 123.013 20.3807L124.873 20.7784C125.906 21.0009 126.673 21.3537 127.175 21.8366C127.681 22.3196 127.937 22.9517 127.942 23.733C127.937 24.4195 127.736 25.0256 127.338 25.5511C126.945 26.072 126.398 26.4792 125.697 26.7727C124.997 27.0663 124.192 27.2131 123.283 27.2131C121.947 27.2131 120.872 26.9337 120.058 26.375C119.244 25.8116 118.758 25.0279 118.602 24.0241L121.109 23.7827C121.223 24.2751 121.464 24.6468 121.834 24.8977C122.203 25.1487 122.684 25.2741 123.275 25.2741C123.886 25.2741 124.376 25.1487 124.746 24.8977C125.12 24.6468 125.307 24.3366 125.307 23.9673C125.307 23.6548 125.186 23.3968 124.944 23.1932C124.708 22.9896 124.338 22.8333 123.837 22.7244L121.976 22.3338C120.929 22.116 120.155 21.7491 119.653 21.233C119.151 20.7121 118.903 20.054 118.908 19.2585C118.903 18.5862 119.085 18.0038 119.454 17.5114C119.828 17.0142 120.347 16.6307 121.01 16.3608C121.677 16.0862 122.447 15.9489 123.318 15.9489C124.596 15.9489 125.603 16.2211 126.337 16.7656C127.075 17.3101 127.532 18.0464 127.707 18.9744ZM128.462 27V16.0909H131.033V27H128.462ZM129.754 14.5426C129.347 14.5426 128.997 14.4077 128.703 14.1378C128.41 13.8632 128.263 13.5341 128.263 13.1506C128.263 12.7623 128.41 12.4332 128.703 12.1634C128.997 11.8887 129.347 11.7514 129.754 11.7514C130.166 11.7514 130.517 11.8887 130.805 12.1634C131.099 12.4332 131.246 12.7623 131.246 13.1506C131.246 13.5341 131.099 13.8632 130.805 14.1378C130.517 14.4077 130.166 14.5426 129.754 14.5426ZM136.821 31.3182C135.898 31.3182 135.104 31.1927 134.442 30.9418C133.779 30.6955 133.246 30.3641 132.844 29.9474C132.441 29.5308 132.162 29.0691 132.005 28.5625L134.321 28.0014C134.425 28.2145 134.576 28.4252 134.775 28.6335C134.974 28.8466 135.242 29.0218 135.578 29.1591C135.919 29.3011 136.347 29.3722 136.863 29.3722C137.593 29.3722 138.196 29.1946 138.675 28.8395C139.153 28.4891 139.392 27.9115 139.392 27.1065V25.0398H139.264C139.131 25.3049 138.937 25.5772 138.682 25.8565C138.431 26.1359 138.097 26.3703 137.68 26.5597C137.268 26.7491 136.75 26.8438 136.125 26.8438C135.287 26.8438 134.527 26.6473 133.845 26.2543C133.168 25.8565 132.628 25.2647 132.226 24.4787C131.828 23.688 131.629 22.6984 131.629 21.5099C131.629 20.312 131.828 19.3011 132.226 18.4773C132.628 17.6487 133.17 17.0213 133.852 16.5952C134.534 16.1643 135.294 15.9489 136.132 15.9489C136.771 15.9489 137.297 16.0578 137.709 16.2756C138.125 16.4886 138.457 16.7467 138.703 17.0497C138.949 17.348 139.136 17.6297 139.264 17.8949H139.406V16.0909H141.942V27.1776C141.942 28.1103 141.719 28.8821 141.274 29.4929C140.829 30.1037 140.22 30.5606 139.449 30.8636C138.677 31.1667 137.801 31.3182 136.821 31.3182ZM136.842 24.8267C137.387 24.8267 137.851 24.6941 138.234 24.429C138.618 24.1638 138.909 23.7827 139.108 23.2855C139.307 22.7884 139.406 22.1918 139.406 21.4957C139.406 20.8092 139.307 20.2079 139.108 19.6918C138.914 19.1757 138.625 18.7756 138.241 18.4915C137.862 18.2027 137.396 18.0582 136.842 18.0582C136.269 18.0582 135.791 18.2074 135.407 18.5057C135.024 18.804 134.735 19.2135 134.541 19.7344C134.347 20.2505 134.25 20.8376 134.25 21.4957C134.25 22.1634 134.347 22.7481 134.541 23.25C134.74 23.7472 135.031 24.1354 135.415 24.4148C135.803 24.6894 136.279 24.8267 136.842 24.8267ZM145.548 20.608V27H142.976V16.0909H145.434V17.9446H145.562C145.813 17.3338 146.213 16.8485 146.762 16.4886C147.316 16.1288 148 15.9489 148.815 15.9489C149.567 15.9489 150.223 16.1098 150.782 16.4318C151.345 16.7538 151.781 17.2202 152.089 17.831C152.401 18.4418 152.555 19.1828 152.55 20.054V27H149.979V20.4517C149.979 19.7225 149.79 19.152 149.411 18.7401C149.037 18.3281 148.519 18.1222 147.856 18.1222C147.406 18.1222 147.006 18.2216 146.655 18.4205C146.31 18.6146 146.038 18.8963 145.839 19.2656C145.645 19.6349 145.548 20.0824 145.548 20.608ZM161.683 27.2131C160.594 27.2131 159.659 26.974 158.878 26.4957C158.102 26.0175 157.503 25.357 157.081 24.5142C156.665 23.6667 156.456 22.6913 156.456 21.5881C156.456 20.4801 156.669 19.5024 157.095 18.6548C157.522 17.8026 158.123 17.1397 158.899 16.6662C159.681 16.188 160.604 15.9489 161.669 15.9489C162.555 15.9489 163.338 16.1122 164.02 16.4389C164.707 16.7609 165.254 17.2178 165.661 17.8097C166.068 18.3968 166.3 19.0833 166.357 19.8693H163.899C163.8 19.3437 163.563 18.9058 163.189 18.5554C162.82 18.2003 162.325 18.0227 161.705 18.0227C161.179 18.0227 160.718 18.1648 160.32 18.4489C159.922 18.7282 159.612 19.1307 159.389 19.6562C159.172 20.1818 159.063 20.8116 159.063 21.5455C159.063 22.2888 159.172 22.928 159.389 23.4631C159.607 23.9934 159.913 24.4029 160.306 24.6918C160.703 24.9759 161.17 25.1179 161.705 25.1179C162.084 25.1179 162.422 25.0469 162.72 24.9048C163.023 24.758 163.277 24.5473 163.48 24.2727C163.684 23.9981 163.824 23.6643 163.899 23.2713H166.357C166.295 24.0431 166.068 24.7273 165.675 25.3239C165.282 25.9157 164.747 26.3797 164.07 26.7159C163.393 27.0473 162.597 27.2131 161.683 27.2131ZM171.626 27.2131C170.561 27.2131 169.638 26.9787 168.857 26.5099C168.075 26.0412 167.469 25.3854 167.038 24.5426C166.612 23.6998 166.399 22.715 166.399 21.5881C166.399 20.4612 166.612 19.474 167.038 18.6264C167.469 17.7789 168.075 17.1207 168.857 16.652C169.638 16.1832 170.561 15.9489 171.626 15.9489C172.692 15.9489 173.615 16.1832 174.396 16.652C175.178 17.1207 175.781 17.7789 176.207 18.6264C176.638 19.474 176.854 20.4612 176.854 21.5881C176.854 22.715 176.638 23.6998 176.207 24.5426C175.781 25.3854 175.178 26.0412 174.396 26.5099C173.615 26.9787 172.692 27.2131 171.626 27.2131ZM171.641 25.1534C172.218 25.1534 172.701 24.9948 173.089 24.6776C173.478 24.3556 173.767 23.9247 173.956 23.3849C174.15 22.8452 174.247 22.2438 174.247 21.581C174.247 20.9134 174.15 20.3097 173.956 19.7699C173.767 19.2254 173.478 18.7921 173.089 18.4702C172.701 18.1482 172.218 17.9872 171.641 17.9872C171.049 17.9872 170.556 18.1482 170.163 18.4702C169.775 18.7921 169.484 19.2254 169.29 19.7699C169.1 20.3097 169.006 20.9134 169.006 21.581C169.006 22.2438 169.1 22.8452 169.29 23.3849C169.484 23.9247 169.775 24.3556 170.163 24.6776C170.556 24.9948 171.049 25.1534 171.641 25.1534ZM179.02 27.1562C178.589 27.1562 178.219 27.0047 177.912 26.7017C177.604 26.3987 177.452 26.0294 177.457 25.5938C177.452 25.1676 177.604 24.803 177.912 24.5C178.219 24.197 178.589 24.0455 179.02 24.0455C179.436 24.0455 179.799 24.197 180.106 24.5C180.419 24.803 180.577 25.1676 180.582 25.5938C180.577 25.8826 180.502 26.1454 180.355 26.3821C180.213 26.6188 180.023 26.8082 179.787 26.9503C179.555 27.0876 179.299 27.1562 179.02 27.1562Z" fill="black"/>
</svg>
